<mxfile host="app.diagrams.net" modified="2023-12-18T05:02:08.100Z" agent="Mozilla/5.0 (Windows NT 10.0; Win64; x64) AppleWebKit/537.36 (KHTML, like Gecko) Chrome/120.0.0.0 Safari/537.36 Edg/120.0.0.0" version="22.1.11" etag="rV9sW2fPztocpHh_dt6_" type="github">
  <diagram name="第 1 页" id="i7X3ob6reQ4b1gkFsARu">
    <mxGraphModel>
      <root>
        <mxCell id="0" />
        <mxCell id="1" parent="0" />
      </root>
    </mxGraphModel>
  </diagram>
</mxfile>
